<?xml version="1.0" encoding="utf-8"?>
<!-- Generator: Adobe Illustrator 23.1.0, SVG Export Plug-In . SVG Version: 6.00 Build 0)  -->
<svg version="1.1" id="Layer_1" xmlns="http://www.w3.org/2000/svg" xmlns:xlink="http://www.w3.org/1999/xlink" x="0px" y="0px"
	 viewBox="0 0 891 494" style="enable-background:new 0 0 891 494;" xml:space="preserve">
<style type="text/css">
	.st0{fill:#E9EEF8;}
</style>
<g>
	<g>
		<path class="st0" d="M885.29,166.68c-0.53-32.24-3.49-67.01-20.78-91.03c-12.03-16.71-29.36-25.77-46.41-33.03
			C738.91,8.86,652.23,2.84,570.52,25.44c-23.41,6.47-47.89,15.15-71.42,14.75c-7.96,1.67-16.09,2.21-24.21,2.11
			c-3.92,0.25-7.84,0.47-11.76,0.63c-43.85,1.82-87.7-1.53-131.33-7.17c-68.95-1.32-137.87-4.68-206.69-10.09
			c-24.54-1.93-50.49-3.78-72.34,10.24C25.95,53.09,11.31,91.03,7.33,128.24c-5.59,52.3,7.01,107.22,33.95,147.96
			c27.98,42.32,68.71,67.6,104.62,99.32c25.69,22.69,49.33,49.11,76.48,69.01c60.6,44.42,135.57,52.92,204.23,34.03
			c73.79-20.29,140.9-69.99,215.05-88.17c47.12-11.55,95.57-9.99,143.55-12.76c14.19-0.82,28.82-2.16,41.51-10.11
			c11.61-7.27,20.73-19.57,28.06-32.93C881.22,286.43,886.26,225.01,885.29,166.68z"/>
	</g>
</g>
</svg>
