<?xml version="1.0" encoding="utf-8"?>
<!-- Generator: Adobe Illustrator 23.1.0, SVG Export Plug-In . SVG Version: 6.00 Build 0)  -->
<svg version="1.1" id="Layer_1" xmlns="http://www.w3.org/2000/svg" xmlns:xlink="http://www.w3.org/1999/xlink" x="0px" y="0px"
	 viewBox="0 0 891 433" style="enable-background:new 0 0 891 433;" xml:space="preserve">
<style type="text/css">
	.st0{fill:#E9EEF8;}
</style>
<g>
	<g>
		<path class="st0" d="M885.29,147.53c-0.53-28.25-3.49-58.72-20.78-79.76c-12.03-14.64-29.36-22.58-46.41-28.95
			C738.91,9.25,652.23,3.98,570.52,23.77c-23.41,5.67-47.89,13.27-71.42,12.93c-7.96,1.46-16.09,1.94-24.21,1.85
			c-3.92,0.22-7.84,0.41-11.76,0.55c-43.85,1.59-87.7-1.34-131.33-6.28c-68.95-1.16-137.87-4.1-206.69-8.84
			c-24.54-1.69-50.49-3.31-72.34,8.97c-26.81,15.06-41.46,48.3-45.43,80.9c-5.59,45.83,7.01,93.95,33.95,129.64
			c27.98,37.08,68.71,59.23,104.62,87.02c25.69,19.88,49.33,43.03,76.48,60.47c60.6,38.92,135.57,46.37,204.23,29.82
			c73.79-17.78,140.9-61.33,215.05-77.26c47.12-10.12,95.57-8.76,143.55-11.18c14.19-0.72,28.82-1.89,41.51-8.85
			c11.61-6.37,20.73-17.15,28.06-28.85C881.22,252.45,886.26,198.64,885.29,147.53z"/>
	</g>
</g>
</svg>
